<?xml version="1.0" encoding="utf-8"?>
<!-- Generator: Adobe Illustrator 25.0.1, SVG Export Plug-In . SVG Version: 6.00 Build 0)  -->
<svg version="1.1" id="Layer_7" xmlns="http://www.w3.org/2000/svg" xmlns:xlink="http://www.w3.org/1999/xlink" x="0px" y="0px"
	 viewBox="0 0 200 200" style="enable-background:new 0 0 200 200;" xml:space="preserve">
<style type="text/css">
	.st0{fill:#22B573;}
</style>
<g>
	<g>
		<path class="st0" d="M149.3,84.5L144,62.8c-1.1-4.5-5-7.6-9.5-7.6H65.4c-4.5,0-8.4,3.1-9.5,7.6l-5.2,21.7
			c-1.2,5.1-0.1,10.3,3.1,14.3c0.4,0.5,0.9,0.9,1.4,1.4v34.5c0,5.5,4.5,10,10,10h69.7c5.5,0,10-4.5,10-10v-34.5
			c0.4-0.4,1-0.9,1.4-1.4C149.4,94.8,150.5,89.6,149.3,84.5z M134.4,65.1l5.2,21.7c0.5,2.1,0,4.2-1.2,5.8c-0.7,0.9-2.2,2.3-4.7,2.3
			c-3,0-5.7-2.4-6-5.7l-2.9-24.2L134.4,65.1z M105,65.2h9.8l2.7,22.5c0.2,1.9-0.3,3.9-1.6,5.3c-1.1,1.3-2.7,2-4.7,2
			c-3.3,0-6.1-2.9-6.1-6.5V65.2z M82.5,87.7l2.7-22.5H95v23.3c0,3.6-2.7,6.5-6.4,6.5c-1.7,0-3.2-0.7-4.4-2
			C82.9,91.5,82.3,89.6,82.5,87.7z M60.4,86.9l5-21.7h9.8l-2.9,24.2c-0.4,3.2-3,5.7-6,5.7c-2.4,0-4-1.4-4.6-2.3
			C60.3,91.1,59.9,89,60.4,86.9z M65.2,134.8v-30c0.4,0,0.7,0.1,1.1,0.1c4.3,0,8.3-1.8,11.1-4.7c3,3,7,4.7,11.5,4.7
			c4.3,0,8.2-1.8,11.1-4.6c2.9,2.8,6.9,4.6,11.4,4.6c4.2,0,8.2-1.7,11.1-4.7c2.9,2.9,6.8,4.7,11.1,4.7c0.4,0,0.7-0.1,1.1-0.1v30
			H65.2z"/>
	</g>
</g>
</svg>
