<?xml version="1.0" encoding="utf-8"?>
<!-- Generator: Adobe Illustrator 25.0.1, SVG Export Plug-In . SVG Version: 6.00 Build 0)  -->
<svg version="1.1" id="Layer_6" xmlns="http://www.w3.org/2000/svg" xmlns:xlink="http://www.w3.org/1999/xlink" x="0px" y="0px"
	 viewBox="0 0 200 200" style="enable-background:new 0 0 200 200;" xml:space="preserve">
<style type="text/css">
	.st0{fill:#22B573;}
</style>
<path class="st0" d="M121.4,104.7c3.5,0,6.6-1.9,8.2-4.9l16.9-30.6c1.7-3.1-0.5-7-4.1-7H72.7l-4.4-9.4H52.9v9.4h9.4l17,35.8
	l-6.4,11.5c-3.4,6.3,1.1,14,8.2,14h56.5v-9.4H81.1l5.2-9.4H121.4z M77.2,71.7h57.2l-13,23.6H88.3L77.2,71.7z M81.1,128.3
	c-5.2,0-9.4,4.2-9.4,9.4c0,5.2,4.2,9.4,9.4,9.4c5.2,0,9.4-4.2,9.4-9.4C90.6,132.5,86.3,128.3,81.1,128.3z M128.2,128.3
	c-5.2,0-9.4,4.2-9.4,9.4c0,5.2,4.2,9.4,9.4,9.4s9.4-4.2,9.4-9.4C137.7,132.5,133.4,128.3,128.2,128.3z"/>
</svg>
