<svg id="bold" enable-background="new 0 0 24 24" height="512" viewBox="0 0 24 24" width="512" xmlns="http://www.w3.org/2000/svg"><g><path d="m20.749 7.75c-.163 0-.328-.04-.481-.124l-7.42-4.08c-.484-.266-.661-.875-.395-1.358.267-.484.875-.66 1.358-.395l7.42 4.08c.484.266.661.875.395 1.358-.182.332-.524.519-.877.519z"/></g><g><path d="m3.251 7.75c-.353 0-.695-.187-.877-.518-.267-.484-.09-1.092.394-1.358l7.42-4.08c.486-.265 1.092-.089 1.358.395s.089 1.092-.395 1.358l-7.42 4.08c-.152.083-.317.123-.48.123z"/></g><g><path d="m5 13c1.103 0 2-.897 2-2s-.897-2-2-2-2 .897-2 2 .897 2 2 2z"/></g><g><path d="m12 4c-1.103 0-2-.897-2-2s.897-2 2-2 2 .897 2 2-.897 2-2 2z"/></g><path d="m21 6h-18c-1.654 0-3 1.346-3 3v12c0 1.654 1.346 3 3 3h18c1.654 0 3-1.346 3-3v-12.25c0-1.593-1.262-2.75-3-2.75zm-18 2h18c.234 0 1 .054 1 .75v8.189l-5.26-5.26c-.684-.684-1.797-.684-2.48 0l-4.76 4.76-1.26-1.26c-.684-.684-1.797-.684-2.48 0l-3.76 3.76v-9.939c0-.551.449-1 1-1z"/></svg>