<?xml version="1.0" encoding="utf-8"?>
<!-- Generator: Adobe Illustrator 25.0.1, SVG Export Plug-In . SVG Version: 6.00 Build 0)  -->
<svg version="1.1" id="Layer_4" xmlns="http://www.w3.org/2000/svg" xmlns:xlink="http://www.w3.org/1999/xlink" x="0px" y="0px"
	 viewBox="0 0 200 200" style="enable-background:new 0 0 200 200;" xml:space="preserve">
<style type="text/css">
	.st0{fill:#22B573;}
</style>
<path class="st0" d="M149.2,100l-10.9-12.4l1.5-16.5l-16.1-3.7l-8.4-14.2L100,59.7l-15.2-6.5l-8.4,14.2l-16.1,3.6l1.5,16.5L50.8,100
	l10.9,12.4l-1.5,16.5l16.1,3.7l8.4,14.2l15.2-6.6l15.2,6.5l8.4-14.2l16.1-3.7l-1.5-16.5L149.2,100z M129,109.4l1.2,12.5l-12.2,2.8
	l-6.4,10.8l-11.5-5l-11.5,5l-6.4-10.8l-12.2-2.8l1.2-12.5l-8.3-9.4l8.3-9.5l-1.2-12.4l12.2-2.7l6.4-10.8l11.5,4.9l11.5-5l6.4,10.8
	l12.2,2.8L129,90.5l8.3,9.4L129,109.4z M95.5,113.4h8.9v8.9h-8.9V113.4z M95.5,77.6h8.9v26.8h-8.9V77.6z"/>
</svg>
