<?xml version="1.0" encoding="utf-8"?>
<!-- Generator: Adobe Illustrator 25.0.1, SVG Export Plug-In . SVG Version: 6.00 Build 0)  -->
<svg version="1.1" id="Layer_1" xmlns="http://www.w3.org/2000/svg" xmlns:xlink="http://www.w3.org/1999/xlink" x="0px" y="0px"
	 viewBox="0 0 200 200" style="enable-background:new 0 0 200 200;" xml:space="preserve">
<style type="text/css">
	.st0{opacity:0.6;}
	.st1{fill:url(#SVGID_1_);}
	.st2{fill:url(#SVGID_2_);}
	.st3{fill:#FFFFFF;}
	.st4{fill:#22B573;}
	.st5{fill:#A67C52;}
	.st6{font-family:'BMDoHyeon';}
	.st7{font-size:26.6467px;}
</style>
<g>
	<g>
		<g>
			<g class="st0">
				<g>
					<g>
						<linearGradient id="SVGID_1_" gradientUnits="userSpaceOnUse" x1="120.9767" y1="172.2512" x2="71.2187" y2="20.8138">
							<stop  offset="0" style="stop-color:#7FB267"/>
							<stop  offset="0.4339" style="stop-color:#3CA269"/>
							<stop  offset="0.9921" style="stop-color:#0095A6"/>
						</linearGradient>
						<polygon class="st1" points="70.4,68.4 70.4,97.2 112.8,97.2 112.8,68.4 91.6,50.9 						"/>
					</g>
				</g>
				<g>
					<linearGradient id="SVGID_2_" gradientUnits="userSpaceOnUse" x1="150.3321" y1="162.6058" x2="100.5741" y2="11.1685">
						<stop  offset="0" style="stop-color:#7FB267"/>
						<stop  offset="0.4339" style="stop-color:#3CA269"/>
						<stop  offset="0.9921" style="stop-color:#0095A6"/>
					</linearGradient>
					<polygon class="st2" points="112.3,71.8 112.3,97.2 137,97.2 137,71.8 124.7,62.2 					"/>
				</g>
			</g>
			<path class="st3" d="M96.8,97.2h-15V82.7c0-4.1,3.4-7.5,7.5-7.5h0c4.1,0,7.5,3.4,7.5,7.5V97.2z"/>
			<g>
				<g>
					<g>
						<path class="st4" d="M113,74.4c4.8-4,9.6-8,14.4-12c-2.2,0-4.5,0-6.7,0c4.8,4,9.6,8,14.4,12c4.6,3.9,11.4-2.8,6.7-6.7
							c-4.8-4-9.6-8-14.4-12c-2.1-1.8-4.6-1.8-6.7,0c-4.8,4-9.6,8-14.4,12C101.7,71.6,108.4,78.3,113,74.4L113,74.4z"/>
					</g>
				</g>
				<g>
					<g>
						<path class="st4" d="M72.8,68.4c7.3-6.3,14.6-12.6,21.8-18.9c-2.2,0-4.5,0-6.7,0c7.3,6.3,14.6,12.6,21.8,18.9
							c4.6,4,11.3-2.7,6.7-6.7c-7.3-6.3-14.6-12.6-21.8-18.9c-2-1.8-4.6-1.8-6.7,0c-7.3,6.3-14.6,12.6-21.8,18.9
							C61.5,65.7,68.2,72.4,72.8,68.4L72.8,68.4z"/>
					</g>
				</g>
			</g>
			<path class="st4" d="M61.4,76.2c-3.3,0-6,2.7-6,6c0,2.6,1.7,4.9,4.1,5.7c0.6,0.2,1.3,0.3,2,0.3s1.4-0.1,2-0.3
				c2.4-0.8,4.1-3.1,4.1-5.7C67.4,78.9,64.7,76.2,61.4,76.2z"/>
			<path class="st5" d="M59.4,87.9v9.3h3.9v-9.3c-0.6,0.2-1.3,0.3-2,0.3S60,88.2,59.4,87.9z"/>
			<path class="st4" d="M143.5,105.5H56.5c-2.3,0-4.2-1.9-4.2-4.2v0c0-2.3,1.9-4.2,4.2-4.2h86.9c2.3,0,4.2,1.9,4.2,4.2v0
				C147.7,103.6,145.8,105.5,143.5,105.5z"/>
		</g>
		<rect x="118.3" y="77.6" class="st3" width="11.2" height="9.3"/>
	</g>
	<text transform="matrix(1 0 0 1 18.9945 144.0287)" class="st4 st6 st7">신바람 빌리지</text>
</g>
</svg>
